<svg id="Layer_1" data-name="Layer 1" xmlns="http://www.w3.org/2000/svg" viewBox="0 0 341.35 218.94"><defs><style>.cls-1{fill:#fff;}.cls-1,.cls-5{stroke:#231f20;}.cls-1,.cls-2,.cls-4,.cls-5{stroke-miterlimit:10;}.cls-2,.cls-4,.cls-5{fill:none;}.cls-2{stroke:#006838;}.cls-3{font-size:12px;font-family:Myriad Pro;}.cls-3,.cls-6{fill:#231f20;}.cls-4{stroke:#8b5e3c;}</style></defs><title>kernelatom</title><rect class="cls-1" x="0.5" y="54.54" width="340.35" height="94.3"/><rect class="cls-2" x="7.52" y="62.44" width="43.86" height="36.84"/><rect class="cls-2" x="7.52" y="108" width="43.86" height="36.84"/><rect class="cls-2" x="59.27" y="62.85" width="43.86" height="36.84"/><rect class="cls-2" x="59.27" y="108.41" width="43.86" height="36.84"/><rect class="cls-2" x="110.52" y="62.44" width="43.86" height="36.84"/><rect class="cls-2" x="110.52" y="108" width="43.86" height="36.84"/><rect class="cls-2" x="162.27" y="62.85" width="43.86" height="36.84"/><rect class="cls-2" x="162.27" y="108.41" width="43.86" height="36.84"/><rect class="cls-2" x="213.52" y="62.65" width="43.86" height="36.84"/><rect class="cls-2" x="213.52" y="108.21" width="43.86" height="36.84"/><rect class="cls-2" x="265.27" y="63.06" width="65.93" height="83.02"/><text class="cls-3" transform="translate(289.2 108.49)">SM</text><text class="cls-3" transform="translate(14.89 85.27)">Ke<tspan x="12.52" y="0">r</tspan><tspan x="16.49" y="0">nel</tspan></text><circle class="cls-4" cx="29.45" cy="20.57" r="19.69"/><text class="cls-3" transform="translate(15.32 25.19)">A<tspan x="6.42" y="0">T</tspan><tspan x="12.06" y="0">OM</tspan></text><circle class="cls-4" cx="79.97" cy="20.95" r="19.69"/><text class="cls-3" transform="translate(65.83 25.57)">A<tspan x="6.42" y="0">T</tspan><tspan x="12.06" y="0">OM</tspan></text><circle class="cls-4" cx="132.45" cy="20.57" r="19.69"/><text class="cls-3" transform="translate(118.32 25.19)">A<tspan x="6.42" y="0">T</tspan><tspan x="12.06" y="0">OM</tspan></text><path class="cls-4" d="M328.42,95.92a19.69,19.69,0,1,1,19.69-19.69,19.69,19.69,0,0,1-19.69,19.69" transform="translate(-144.18 -56.03)"/><text class="cls-3" transform="translate(170.11 24.82)">A<tspan x="6.42" y="0">T</tspan><tspan x="12.06" y="0">OM</tspan></text><path class="cls-4" d="M378.94,96.3a19.69,19.69,0,1,1,19.69-19.69A19.69,19.69,0,0,1,378.94,96.3" transform="translate(-144.18 -56.03)"/><text class="cls-3" transform="translate(220.62 25.19)">A<tspan x="6.42" y="0">T</tspan><tspan x="12.06" y="0">OM</tspan></text><circle class="cls-4" cx="29.45" cy="198.37" r="19.69"/><text class="cls-3" transform="translate(15.32 202.99)">A<tspan x="6.42" y="0">T</tspan><tspan x="12.06" y="0">OM</tspan></text><circle class="cls-4" cx="79.97" cy="198.75" r="19.69"/><text class="cls-3" transform="translate(65.83 203.37)">A<tspan x="6.42" y="0">T</tspan><tspan x="12.06" y="0">OM</tspan></text><circle class="cls-4" cx="132.45" cy="198.37" r="19.69"/><text class="cls-3" transform="translate(118.32 202.99)">A<tspan x="6.42" y="0">T</tspan><tspan x="12.06" y="0">OM</tspan></text><path class="cls-4" d="M328.42,273.72A19.69,19.69,0,1,1,348.11,254a19.69,19.69,0,0,1-19.69,19.69" transform="translate(-144.18 -56.03)"/><text class="cls-3" transform="translate(170.11 202.61)">A<tspan x="6.42" y="0">T</tspan><tspan x="12.06" y="0">OM</tspan></text><path class="cls-4" d="M378.94,274.1a19.69,19.69,0,1,1,19.69-19.69,19.69,19.69,0,0,1-19.69,19.69" transform="translate(-144.18 -56.03)"/><text class="cls-3" transform="translate(220.62 202.99)">A<tspan x="6.42" y="0">T</tspan><tspan x="12.06" y="0">OM</tspan></text><text class="cls-3" transform="translate(66.16 85.55)">Ke<tspan x="12.52" y="0">r</tspan><tspan x="16.49" y="0">nel</tspan></text><text class="cls-3" transform="translate(117.32 85.41)">Ke<tspan x="12.52" y="0">r</tspan><tspan x="16.49" y="0">nel</tspan></text><text class="cls-3" transform="translate(168.59 85.69)">Ke<tspan x="12.52" y="0">r</tspan><tspan x="16.49" y="0">nel</tspan></text><text class="cls-3" transform="translate(12.99 130.58)">Ke<tspan x="12.52" y="0">r</tspan><tspan x="16.49" y="0">nel</tspan></text><text class="cls-3" transform="translate(64.26 130.86)">Ke<tspan x="12.52" y="0">r</tspan><tspan x="16.49" y="0">nel</tspan></text><text class="cls-3" transform="translate(115.42 130.72)">Ke<tspan x="12.52" y="0">r</tspan><tspan x="16.49" y="0">nel</tspan></text><text class="cls-3" transform="translate(166.69 131)">Ke<tspan x="12.52" y="0">r</tspan><tspan x="16.49" y="0">nel</tspan></text><text class="cls-3" transform="translate(220.84 85.65)">Ke<tspan x="12.52" y="0">r</tspan><tspan x="16.49" y="0">nel</tspan></text><text class="cls-3" transform="translate(218.95 130.96)">Ke<tspan x="12.52" y="0">r</tspan><tspan x="16.49" y="0">nel</tspan></text><line class="cls-5" x1="29.45" y1="178.68" x2="29.45" y2="151.29"/><path class="cls-6" d="M173.63,201.29a30.22,30.22,0,0,0,4.76,8.55l-4.76-1.72-4.75,1.72A30.2,30.2,0,0,0,173.63,201.29Z" transform="translate(-144.18 -56.03)"/><line class="cls-5" x1="81.2" y1="178.68" x2="81.2" y2="151.29"/><path class="cls-6" d="M225.39,201.29a30.22,30.22,0,0,0,4.76,8.55l-4.76-1.72-4.75,1.72A30.2,30.2,0,0,0,225.39,201.29Z" transform="translate(-144.18 -56.03)"/><line class="cls-5" x1="132.45" y1="178.68" x2="132.45" y2="151.29"/><path class="cls-6" d="M276.63,201.29a30.22,30.22,0,0,0,4.76,8.55l-4.76-1.72-4.75,1.72A30.2,30.2,0,0,0,276.63,201.29Z" transform="translate(-144.18 -56.03)"/><line class="cls-5" x1="184.2" y1="178.68" x2="184.2" y2="151.29"/><path class="cls-6" d="M328.39,201.29a30.22,30.22,0,0,0,4.76,8.55l-4.76-1.72-4.75,1.72A30.2,30.2,0,0,0,328.39,201.29Z" transform="translate(-144.18 -56.03)"/><line class="cls-5" x1="234.75" y1="178.68" x2="234.75" y2="151.29"/><path class="cls-6" d="M378.94,201.29a30.22,30.22,0,0,0,4.76,8.55l-4.76-1.72-4.75,1.72A30.2,30.2,0,0,0,378.94,201.29Z" transform="translate(-144.18 -56.03)"/><line class="cls-5" x1="29.79" y1="57.02" x2="29.79" y2="29.64"/><path class="cls-6" d="M174,119.09a30.22,30.22,0,0,1,4.76-8.55L174,112.26l-4.75-1.72A30.2,30.2,0,0,1,174,119.09Z" transform="translate(-144.18 -56.03)"/><line class="cls-5" x1="81.55" y1="57.02" x2="81.55" y2="29.64"/><path class="cls-6" d="M225.73,119.09a30.22,30.22,0,0,1,4.76-8.55l-4.76,1.72L221,110.54A30.2,30.2,0,0,1,225.73,119.09Z" transform="translate(-144.18 -56.03)"/><line class="cls-5" x1="132.79" y1="57.02" x2="132.79" y2="29.64"/><path class="cls-6" d="M277,119.09a30.22,30.22,0,0,1,4.76-8.55L277,112.26l-4.75-1.72A30.2,30.2,0,0,1,277,119.09Z" transform="translate(-144.18 -56.03)"/><line class="cls-5" x1="184.55" y1="57.02" x2="184.55" y2="29.64"/><path class="cls-6" d="M328.73,119.09a30.22,30.22,0,0,1,4.76-8.55l-4.76,1.72L324,110.54A30.2,30.2,0,0,1,328.73,119.09Z" transform="translate(-144.18 -56.03)"/><line class="cls-5" x1="235.1" y1="57.02" x2="235.1" y2="29.64"/><path class="cls-6" d="M379.29,119.09a30.22,30.22,0,0,1,4.76-8.55l-4.76,1.72-4.75-1.72A30.2,30.2,0,0,1,379.29,119.09Z" transform="translate(-144.18 -56.03)"/></svg>